<?xml version="1.0" standalone="no"?>
<!DOCTYPE svg PUBLIC "-//W3C//DTD SVG 20010904//EN"
 "http://www.w3.org/TR/2001/REC-SVG-20010904/DTD/svg10.dtd">
<svg version="1.0" xmlns="http://www.w3.org/2000/svg"
 width="600.000000pt" height="600.000000pt" viewBox="0 0 600.000000 600.000000"
 preserveAspectRatio="xMidYMid meet">
<g transform="translate(0.000000,600.000000) scale(0.100000,-0.100000)"
fill="#000000" stroke="none">
<path d="M2943 4916 c-104 -76 -315 -220 -398 -271 -98 -61 -261 -216 -319
-305 -109 -163 -151 -288 -171 -500 -7 -85 -22 -240 -31 -345 -10 -104 -18
-264 -18 -355 l-1 -165 32 -62 c40 -75 131 -226 186 -307 l40 -59 -39 6 c-21
4 -51 16 -67 27 -41 31 -67 22 -107 -37 -19 -29 -38 -52 -42 -53 -19 -1 -7 79
17 114 14 20 25 41 25 46 0 11 -59 110 -66 110 -11 0 -341 -285 -351 -304 -18
-30 -16 -50 7 -71 19 -17 20 -16 50 9 31 26 63 32 108 20 35 -10 26 -21 -22
-28 -155 -24 -336 -207 -336 -341 0 -181 761 -749 1240 -925 63 -23 144 -54
180 -67 100 -38 193 -41 316 -10 281 73 520 187 784 373 300 213 365 260 450
332 124 104 227 212 236 246 32 131 -163 368 -323 392 -48 7 -49 18 -3 28 35
6 87 -12 109 -37 7 -10 19 -17 26 -17 18 0 57 64 50 83 -10 26 -362 327 -383
327 -5 0 -28 -29 -51 -64 l-42 -64 26 -47 c47 -89 30 -110 -33 -40 -47 52 -69
56 -127 20 -38 -24 -75 -33 -75 -18 0 3 53 97 118 207 l117 201 -1 195 c-2
234 -46 737 -75 855 -80 322 -276 532 -720 775 -53 29 -132 79 -175 111 -43
33 -79 59 -80 59 -1 0 -29 -20 -61 -44z m22 -216 l-38 -51 37 -38 c43 -44 43
-40 5 -82 -50 -55 -51 -63 -24 -103 34 -50 32 -59 -23 -106 -87 -72 -88 -92
-12 -132 14 -7 70 -55 125 -107 55 -52 129 -119 165 -148 l65 -54 3 42 c4 49
-22 93 -106 181 -61 65 -66 94 -9 51 98 -73 167 -189 167 -279 0 -38 27 -63
240 -220 154 -114 196 -141 206 -131 27 27 -84 401 -179 600 -68 143 -69 163
-5 82 206 -259 316 -725 263 -1117 -16 -124 -32 -183 -53 -201 -14 -10 -14 -9
-7 8 17 40 17 183 0 287 -34 204 -82 264 -429 542 -132 106 -263 211 -289 234
-60 52 -54 53 -126 -10 -33 -29 -142 -125 -243 -212 -250 -218 -283 -250 -338
-333 -88 -132 -120 -360 -75 -523 l7 -25 -16 22 c-91 123 -100 599 -16 897 41
145 174 399 244 465 33 31 34 10 2 -32 -59 -77 -175 -405 -195 -552 -6 -44
-13 -92 -16 -107 -3 -17 0 -28 7 -28 18 0 142 94 282 215 130 112 131 113 132
156 1 88 21 129 96 203 l70 70 -26 19 c-43 31 -35 67 29 137 64 70 62 62 30
104 -32 42 -32 41 9 103 l34 51 -34 33 c-44 42 -43 44 17 101 64 60 73 55 24
-12z m246 -15 c44 -76 38 -201 -12 -266 -19 -24 -19 -23 -18 117 1 107 -3 150
-15 179 -9 20 -16 40 -16 42 0 15 35 -27 61 -72z m-651 -410 c0 -3 -2 -5 -5
-5 -3 0 -5 2 -5 5 0 3 2 5 5 5 3 0 5 -2 5 -5z m-13 -32 c-4 -3 -7 0 -7 7 0 7
3 10 7 7 3 -4 3 -10 0 -14z m1255 -228 c54 -61 114 -253 106 -337 -2 -26 -13
-4 -52 117 -27 83 -62 177 -79 210 -30 60 -22 63 25 10z m-739 -410 c83 -40
91 -80 37 -165 -27 -43 -37 -50 -64 -50 -89 1 -175 132 -118 183 50 46 96 56
145 32z m-503 -115 c50 -13 75 -25 173 -82 38 -22 66 -42 64 -45 -6 -5 -236
92 -284 120 -36 21 -43 31 -15 23 9 -3 37 -10 62 -16z m1000 16 c0 -11 -310
-149 -317 -142 -5 5 86 65 149 97 53 28 168 58 168 45z m-340 -131 c0 -3 -2
-5 -5 -5 -3 0 -5 2 -5 5 0 3 2 5 5 5 3 0 5 -2 5 -5z m413 -106 c46 -13 46 -22
-2 -96 -81 -126 -146 -143 -349 -90 -184 48 -187 44 63 126 235 78 229 77 288
60z m-890 -68 c103 -34 187 -64 187 -67 0 -19 -235 -84 -303 -84 -82 0 -135
35 -201 134 -72 108 21 113 317 17z m470 -175 c130 -51 251 -91 324 -106 55
-12 79 -4 176 57 47 30 56 25 24 -13 -43 -52 -65 -109 -91 -235 -28 -139 -60
-227 -104 -291 -62 -90 -318 -318 -357 -318 -7 0 26 37 72 83 110 106 229 248
249 295 34 81 84 282 84 337 0 2 -35 11 -77 20 -43 10 -121 33 -173 52 -52 19
-126 45 -163 59 -97 34 -170 32 -283 -7 -224 -78 -261 -90 -332 -104 -42 -9
-78 -18 -80 -20 -6 -6 48 -200 78 -280 40 -106 193 -298 319 -399 18 -15 31
-29 28 -32 -16 -17 -146 86 -265 210 -104 109 -146 185 -188 336 -53 195 -65
229 -98 279 -41 61 -39 62 39 14 102 -61 165 -54 429 51 61 24 118 46 126 49
57 20 154 6 263 -37z m-129 -469 c6 -91 -1 -191 -20 -279 -14 -68 -20 -13 -21
177 -1 188 1 205 17 205 15 0 18 -14 24 -103z m106 54 c23 -83 2 -275 -37
-341 -25 -44 -35 -37 -16 13 22 61 28 228 10 304 -16 69 -15 73 13 66 12 -3
24 -20 30 -42z m-218 9 c-1 -14 -5 -105 -8 -202 -9 -242 -26 -234 -40 18 -8
128 7 217 35 212 10 -2 15 -12 13 -28z m-127 -12 c-28 -120 -20 -225 24 -310
16 -32 26 -58 21 -58 -11 0 -65 85 -89 143 -41 95 -14 257 42 257 6 0 6 -14 2
-32z m471 1 c26 -52 16 -198 -20 -276 -39 -85 -62 -102 -30 -22 26 64 31 238
9 307 -12 35 21 28 41 -9z m760 -180 c-15 -93 -145 -384 -244 -544 -107 -175
-329 -440 -489 -584 -115 -103 -108 -83 35 107 47 62 83 115 80 118 -3 3 -28
-8 -54 -25 -142 -87 -258 -133 -334 -132 -114 1 -125 10 -44 36 262 84 571
302 734 517 69 90 218 381 280 542 16 43 44 16 36 -35z m-2191 -61 c27 -87
250 -390 465 -631 249 -281 489 -460 770 -575 l25 -10 -30 -12 c-54 -21 -83
-14 -227 58 -281 139 -495 318 -706 592 -254 328 -304 365 -426 312 -34 -16
-46 -17 -46 -8 0 23 59 158 92 211 57 90 72 101 83 63z m2399 -61 c85 -130 95
-160 43 -136 -39 18 -45 12 -174 -167 -123 -171 -202 -269 -210 -260 -3 3 26
58 63 123 128 223 224 453 211 503 -11 42 15 17 67 -63z m-1930 -10 c-9 -49
247 -262 421 -349 94 -48 239 -98 281 -98 117 0 409 168 581 336 100 97 107
88 18 -23 -196 -245 -478 -399 -671 -366 -173 30 -417 200 -604 420 -24 28
-48 49 -52 47 -5 -3 -7 7 -6 23 1 20 7 29 19 29 11 0 16 -7 13 -19z m30 -23
c3 -8 2 -12 -4 -9 -6 3 -10 10 -10 16 0 14 7 11 14 -7z m16 11 c0 -3 -2 -5 -5
-5 -3 0 -5 2 -5 5 0 3 2 5 5 5 3 0 5 -2 5 -5z m1300 -10 c0 -3 -2 -5 -5 -5 -3
0 -5 2 -5 5 0 3 2 5 5 5 3 0 5 -2 5 -5z m50 0 c0 -3 -2 -5 -5 -5 -3 0 -5 2 -5
5 0 3 2 5 5 5 3 0 5 -2 5 -5z m-1410 -50 c0 -3 -2 -5 -5 -5 -3 0 -5 2 -5 5 0
3 2 5 5 5 3 0 5 -2 5 -5z m20 0 c0 -3 -2 -5 -5 -5 -3 0 -5 2 -5 5 0 3 2 5 5 5
3 0 5 -2 5 -5z m10 -20 c0 -3 -2 -5 -5 -5 -3 0 -5 2 -5 5 0 3 2 5 5 5 3 0 5
-2 5 -5z m642 -151 c15 -3 50 -1 78 6 66 16 72 8 17 -24 -53 -31 -75 -32 -121
-5 -37 22 -49 44 -18 35 9 -3 29 -8 44 -12z"/>
<path d="M2845 4089 c-61 -58 -88 -106 -83 -151 5 -48 16 -44 112 34 115 94
118 99 81 138 -38 40 -47 39 -110 -21z"/>
<path d="M2333 2293 c4 -3 10 -3 14 0 3 4 0 7 -7 7 -7 0 -10 -3 -7 -7z"/>
<path d="M1232 3579 c-128 -114 -135 -133 -87 -216 32 -54 39 -54 106 4 30 25
87 71 126 101 44 32 70 59 66 66 -11 18 -86 130 -93 138 -3 4 -56 -38 -118
-93z m-4 -91 c29 -29 -4 -76 -42 -62 -25 10 -18 22 9 16 34 -6 36 34 3 48 -22
8 -22 9 -2 9 11 1 25 -4 32 -11z m-58 -23 c0 -3 -2 -5 -5 -5 -3 0 -5 2 -5 5 0
3 2 5 5 5 3 0 5 -2 5 -5z"/>
<path d="M4705 3611 c-56 -88 -56 -81 13 -134 31 -24 91 -72 132 -107 l74 -62
23 28 c55 68 52 139 -8 183 -16 12 -65 53 -109 92 l-79 70 -46 -70z m194 -130
c-23 -19 -23 -20 -6 -38 18 -17 19 -17 34 2 8 11 13 14 11 6 -7 -25 -35 -36
-52 -22 -28 24 -13 71 22 71 9 0 5 -7 -9 -19z"/>
<path d="M1345 3395 c-60 -46 -111 -88 -113 -93 -1 -5 17 -35 41 -68 23 -32
96 -138 162 -234 196 -289 278 -401 290 -397 21 9 215 160 215 168 0 5 -104
161 -231 346 -127 186 -233 344 -236 351 -8 18 -10 17 -128 -73z m74 -25 c-79
-67 -129 -91 -129 -60 0 15 135 99 144 90 6 -6 -1 -18 -15 -30z m71 -60 c0
-12 -111 -100 -127 -100 -32 0 -18 23 39 64 62 45 88 55 88 36z m39 -106 c-31
-33 -109 -88 -116 -81 -8 8 31 46 79 79 54 35 69 36 37 2z m61 -91 c0 -13
-108 -84 -114 -75 -8 13 14 39 49 61 31 20 65 27 65 14z m42 -96 c-6 -7 -31
-27 -56 -45 -57 -41 -58 -13 -1 29 40 30 77 40 57 16z m55 -95 c-26 -29 -97
-66 -97 -50 1 14 33 40 78 63 32 17 41 11 19 -13z m43 -81 c0 -12 -74 -71 -89
-71 -20 0 -10 15 32 47 44 34 57 39 57 24z m40 -95 c0 -2 -12 -12 -27 -21
l-28 -18 19 21 c17 20 36 29 36 18z"/>
<path d="M4569 3368 c-40 -62 -141 -216 -224 -343 -83 -126 -154 -235 -158
-242 -7 -12 195 -175 220 -177 12 -1 462 655 470 686 4 11 -9 25 -39 44 -23
15 -72 49 -108 77 -36 27 -70 54 -76 59 -8 5 -36 -29 -85 -104z m198 -12 c59
-38 71 -55 47 -63 -15 -5 -146 96 -139 108 7 11 11 9 92 -45z m-65 -84 c60
-45 72 -62 50 -70 -12 -4 -132 95 -132 108 0 19 19 10 82 -38z m-72 -73 c63
-38 98 -79 68 -79 -15 0 -118 78 -118 90 0 15 11 12 50 -11z m-16 -114 c49
-37 43 -59 -8 -28 -49 31 -76 53 -76 64 0 13 47 -8 84 -36z m-96 -64 c47 -25
99 -74 84 -79 -14 -4 -119 67 -126 86 -7 16 -2 15 42 -7z m-32 -104 c26 -18
48 -40 50 -50 2 -16 -67 23 -103 59 -37 36 -5 30 53 -9z m-26 -111 c19 -14 26
-41 8 -30 -34 20 -78 57 -78 66 0 9 28 -5 70 -36z m-30 -107 c0 -13 -31 4 -55
31 l-20 22 38 -22 c20 -12 37 -26 37 -31z"/>
<path d="M4440 2805 c0 -3 2 -5 5 -5 3 0 5 2 5 5 0 3 -2 5 -5 5 -3 0 -5 -2 -5
-5z"/>
</g>
</svg>
